# xmcd CD database file
#
# Track frame offsets:
#	150
#	25721
#	43663
#	83515
#	104798
#	131800
#	148891
#	172985
#	197501
#	240169
#	258027
#
# Disc length: 3809 seconds
#
# Revision: 0
# Processed by: cddbd v1.5.2PL0 Copyright (c) Steve Scherf et al.
# Submitted via: CDex 1.51
#
DISCID=8a0edf0b
DTITLE=Norbert Eisner Quartett - Soon!
DYEAR=1996
DGENRE=Jazz
TTITLE0=Soon
TTITLE1=Salute To R.C.
TTITLE2=Stairway To The Stars
TTITLE3=Just Friends
TTITLE4=Whims Of Chambers
TTITLE5=You'd Be So Nice To Come Home To
TTITLE6=Brussels In The Rains
TTITLE7=Confirmation
TTITLE8=Old Folks
TTITLE9=I Got Rhytm
TTITLE10=Soon
EXTD=YEAR: 1996
EXTT0=
EXTT1=
EXTT2=
EXTT3=
EXTT4=
EXTT5=
EXTT6=
EXTT7=
EXTT8=
EXTT9=
EXTT10=
PLAYORDER=
